<?xml version="1.0" encoding="UTF-8"?>
<svg width="1200pt" height="1200pt" version="1.1" viewBox="0 0 1200 1200" xmlns="http://www.w3.org/2000/svg">
 <path d="m533.5 575.88c5.293 76.047-12.059 151.96-49.863 218.16-36.254 61.379-87.816 112.3-149.65 147.77-32.098 18.816-66.289 33.812-101.88 44.672-9.2383 2.8047-18.562 5.3633-27.969 7.6758v0.003906c-8.8594 2.5039-17.891 4.3672-27.02 5.5664-16.895 1.5547-33.539-4.9258-44.938-17.492-11.398-12.566-16.23-29.762-13.043-46.426 3.1875-16.664 14.02-30.863 29.254-38.336 7.4023-3.0977 15.148-5.3086 23.074-6.582 18.762-4.2031 37.191-9.7812 55.137-16.684 68.945-25.172 127.11-73.328 164.71-136.36-7.7422 4.5039-15.77 8.5039-24.023 11.98-34.746 14.32-72.676 19.152-109.91 14.004-37.227-5.1523-72.418-20.102-101.97-43.324-39.105-31.137-66.137-74.926-76.449-123.84-10.312-48.91-3.2617-99.887 19.941-144.16 23.203-44.277 61.105-79.082 107.19-98.438 36.082-14.395 75.145-19.711 113.76-15.48 38.613 4.2305 75.602 17.875 107.71 39.734 27.801 19.809 51.18 45.176 68.656 74.5 17.375 29.996 29.152 62.902 34.758 97.109 1.0781 8.6289 1.9414 17.273 2.5117 25.945zm603.54 5.168c4.2617 75.391-13.723 150.37-51.719 215.63-36.621 60.879-88.336 111.28-150.14 146.32-32.227 18.684-66.531 33.523-102.21 44.211-9.2812 2.7852-18.633 5.293-28.055 7.5312-8.6562 2.4844-17.512 4.207-26.469 5.1445-14.316 0.80469-28.367-4.1133-39.051-13.676-10.688-9.5625-17.129-22.98-17.91-37.297-0.78125-14.32 4.1602-28.359 13.742-39.027 4.7539-5.3125 10.52-9.6211 16.957-12.68 7.7773-3.1133 15.879-5.3555 24.152-6.6836 18.707-4.2773 37.078-9.918 54.965-16.875 68.328-25.289 125.93-73.211 163.23-135.79-7.7383 4.5078-15.766 8.5117-24.023 11.98-34.871 14.367-72.941 19.18-110.29 13.941-37.348-5.2383-72.625-20.34-102.2-43.746-39.195-31.445-66.137-75.625-76.148-124.86-10.012-49.242-2.4609-100.43 21.34-144.69 23.801-44.254 62.348-78.773 108.95-97.562 36.355-13.938 75.582-18.719 114.22-13.922 38.641 4.7969 75.508 19.023 107.35 41.426 27.691 20.391 50.82 46.332 67.918 76.164 8.8516 15.492 16.047 31.875 21.473 48.871 5.3555 14.934 9.1289 30.387 11.266 46.109 1.2227 9.8086 2.1016 19.637 2.6367 29.488z"/>
</svg>
